<!-- Generated by IcoMoon.io -->
<svg version="1.1" xmlns="http://www.w3.org/2000/svg" width="32" height="32" viewBox="0 0 32 32">
<title>sydney-opera-house</title>
<path fill="#adadad" d="M9.24 8.697c0 0.117 0.28 0.677 0.607 1.261 0.771 1.331 3.036 7.029 4.18 10.508 0.49 1.471 0.957 2.779 1.074 2.919 0.233 0.233 2.102-1.518 5.161-4.857l1.892-2.055-1.728-1.751c-2.709-2.756-6.095-4.787-9.504-5.698-0.56-0.14-1.168-0.327-1.354-0.397s-0.327-0.023-0.327 0.070z"></path>
<path fill="#adadad" d="M3.869 13.578c0 0.047 0.701 1.191 1.588 2.522 0.864 1.331 2.148 3.55 2.849 4.904s1.354 2.405 1.448 2.312c0.233-0.28 0.887-2.335 1.588-5.067 0.607-2.359 0.63-2.592 0.28-2.989-0.467-0.537-3.059-1.308-4.834-1.471-0.771-0.070-1.751-0.163-2.148-0.21-0.42-0.047-0.771-0.047-0.771 0z"></path>
<path fill="#adadad" d="M27.805 14.045c-1.798 0.374-2.989 0.887-4.344 1.798l-1.074 0.724 1.074 1.424c0.607 0.794 1.588 2.242 2.218 3.246 1.074 1.705 1.541 2.172 1.541 1.495 0-0.467 2.615-5.511 3.643-7.052 0.537-0.771 1.028-1.541 1.121-1.705 0.234-0.374-2.288-0.35-4.18 0.070z"></path>
<path fill="#adadad" d="M0.039 16.31c0.093 0.163 0.584 0.794 1.051 1.401 0.49 0.631 1.378 1.915 1.985 2.919 0.654 1.028 1.168 1.635 1.238 1.448 0.047-0.187 0.397-1.168 0.771-2.172 0.35-1.028 0.654-2.032 0.654-2.288 0-0.631-1.471-1.098-4.624-1.471-1.004-0.117-1.214-0.070-1.074 0.163z"></path>
</svg>
