<svg viewBox="0 0 180 67">
<radialGradient id="logo_gradient" cx="42.9521" cy="33.5" r="31.9556" gradientUnits="userSpaceOnUse">
	<stop offset="0.5616" style="stop-color:currentColor"></stop>
	<stop offset="0.6059" style="stop-color:currentColor"></stop>
	<stop offset="1" style="stop-color:currentColor;stop-opacity:0"></stop>
</radialGradient>
<path d="M58.938,34.154L74.924,32l-16.115-0.713l15.344-4.975l-15.98,2.178l14.208-7.633
	l-15.337,4.994l12.619-10.047l-14.199,7.652l10.62-12.139L53.48,21.383l8.281-13.84L51.158,19.697l5.68-15.096l-8.264,13.852
	l2.89-15.869l-5.655,15.105l0.01-16.129l-2.867,15.873L40.082,1.561l0.012,16.129L34.438,2.584l2.892,15.869L29.066,4.602
	l5.677,15.096L24.139,7.543l8.285,13.84L19.818,11.318l10.623,12.139l-14.199-7.652l12.619,10.047l-15.338-4.994L27.73,28.49
	l-15.979-2.178l15.342,4.975L10.979,32l15.987,2.154L11.235,37.73l16.114-0.734l-14.837,6.328l15.724-3.602l-13.468,8.879
	l14.826-6.352L17.93,53.391l13.456-8.896l-9.492,13.041l11.652-11.154l-7.011,14.527l9.472-13.055l-4.302,15.545l6.988-14.539
	l-1.457,16.064l4.28-15.551l1.435,16.066l1.434-16.066l4.28,15.551L47.21,48.859l6.986,14.539l-4.302-15.545l9.471,13.055
	l-7.008-14.527l11.65,11.154l-9.489-13.041l13.456,8.896L56.307,42.25l14.826,6.352l-13.467-8.879l15.723,3.602l-14.834-6.328
	l16.111,0.734L58.938,34.154z M43.02,48.035c-8.191,0-14.842-6.35-14.842-14.768c0-8.115,6.728-14.766,14.842-14.766
	c8.117,0,14.843,6.65,14.843,14.766C57.862,41.686,51.211,48.035,43.02,48.035z"></path>
<path d="M17.021,30.525V19.104h3.533v28.33h-3.533V33.83H3.533v13.604H0v-28.33h3.533v11.422H17.021z"></path>
<path d="M83.52,44.203v3.23H63.418l14.355-25.1H65.447v-3.23H83.52l-14.353,25.1H83.52z"></path>
<path d="M95.053,40.332l-3.232,7.102h-3.794L101.553,17.9l13.527,29.533h-3.793l-3.232-7.102H95.053z
	 M101.553,25.641l-5.034,11.461h10.069L101.553,25.641z"></path>
<path d="M121.615,17.75l21.267,22.281V19.104h3.53V48.6l-21.268-22.281v21.115h-3.529V17.75z"></path>
<path d="M159.977,40.332l-3.234,7.102h-3.795L166.475,17.9L180,47.434h-3.793l-3.232-7.102H159.977z M166.475,25.641
	l-5.035,11.461h10.068L166.475,25.641z"></path>
<g>
	<path d="M41.905,44.029h2.091v-9.715h9.716v-2.092h-9.716v-9.715h-2.091v9.715h-9.716v2.092h9.716V44.029z"></path>
</g>
</svg>