<svg viewBox="0 0 30 30" >
  <g transform="translate(1 2)">
  <path fill="#61DAFB" d="M.05 12.726c0-3.28 6.252-5.94 13.963-5.94 7.711 0 13.963 2.66 13.963 5.94 0 3.28-6.252 5.938-13.963 5.938-7.711 0-13.962-2.659-13.962-5.938zm1 0c0 2.727 5.804 4.938 12.963 4.938 7.16 0 12.963-2.21 12.963-4.938s-5.804-4.94-12.963-4.94c-7.159 0-12.962 2.212-12.962 4.94z"></path>
  <path fill="#61DAFB" d="M7.032.634c2.84-1.64 8.268 2.444 12.124 9.122s4.679 13.421 1.839 15.061c-2.84 1.64-8.27-2.444-12.125-9.122C5.015 9.017 4.191 2.274 7.032.634zm.5.866C5.17 2.864 6.157 8.995 9.736 15.195c3.58 6.2 8.396 10.12 10.759 8.756 2.362-1.364 1.375-7.495-2.205-13.695S9.894.136 7.532 1.5z"></path>
  <path fill="#61DAFB" d="M7.032 24.817c-2.84-1.64-2.017-8.383 1.838-15.06C12.726 3.077 18.154-1.007 20.994.633s2.018 8.383-1.838 15.06c-3.855 6.679-9.284 10.763-12.124 9.123zm.5-.866c2.362 1.364 7.179-2.556 10.758-8.756 3.58-6.2 4.567-12.331 2.204-13.695-2.362-1.364-7.178 2.556-10.758 8.756-3.58 6.2-4.566 12.332-2.204 13.695z"></path>
  <circle fill="#61DAFB" cx="14.105" cy="12.827" r="2.5"></circle>
  </g>
</svg>
